<?xml version="1.0" encoding="UTF-8"?><svg id="Layer_1" xmlns="http://www.w3.org/2000/svg" viewBox="0 0 62.59 62.59"><g id="seSHcE"><g><path d="M45.47,19.88c.13,.19,.26,.38,.4,.56,.86,1.06,1.66,2.16,2.33,3.34,.61,1.07,1.04,2.22,1.42,3.39,.78,2.37,.97,4.8,.64,7.27-.11,.84-.29,1.68-.53,2.5-.5,1.63-1.04,3.25-2.02,4.68-1.2,1.76-2.56,3.38-4.31,4.63-.74,.52-1.5,1.03-2.3,1.43-.85,.43-1.76,.73-2.65,1.09-.07,.03-.16,0-.25,0l-.04-.06c.07-.08,.12-.18,.21-.25,.83-.65,1.69-1.27,2.5-1.95,1.3-1.09,2.35-2.41,3.38-3.74,.91-1.17,1.63-2.45,2.22-3.8,.59-1.33,.94-2.75,1.18-4.19,.29-1.78,.14-3.55-.19-5.31-.26-1.36-.6-2.71-1.23-3.95-.8-1.57-1.75-3.05-3.13-4.2-1.14-.96-2.32-1.86-3.62-2.59-1.68-.94-3.46-1.58-5.36-1.88-1.47-.23-2.92-.16-4.39,.03-1.61,.21-3.14,.65-4.59,1.36-1.16,.56-2.34,1.12-3.34,1.96-1.05,.88-2.03,1.83-2.81,2.98-1.2,1.78-1.98,3.71-2.37,5.82-.27,1.44-.26,2.86-.01,4.3,.17,.98,.62,1.83,1.09,2.68,1.01,1.81,2.38,3.28,4.17,4.33,1.17,.69,2.45,1.06,3.79,1.23,.68,.08,1.35,.21,2.04,.05,.49-.11,.99-.23,1.49-.29,.73-.09,1.47-.11,2.2,.04,1.4,.28,2.47,1.41,2.63,2.82,.05,.46,.04,.94,.02,1.41-.03,.48-.3,.83-.7,1.09-.89,.58-1.87,.96-2.89,1.23-.35,.09-.69,.19-1.03,.29v.07c.08,.01,.16,.04,.23,.03,1.37-.18,2.75-.33,4.06-.8,.08-.03,.23-.02,.25,.03,.04,.07,.04,.2,0,.28-.18,.41-.53,.68-.91,.87-1.18,.59-2.4,1.08-3.75,1.13-1.07,.04-2.13,.1-3.2,.09-.85,0-1.68-.22-2.5-.5-2.11-.72-3.78-2.08-5.36-3.59-1.41-1.34-2.63-2.84-3.59-4.53-.57-1.01-1-2.11-1.48-3.17-.04-.09-.07-.19-.11-.28h-.07c0,.08-.02,.16,0,.22,.66,2.32,1.76,4.4,3.34,6.23,.8,.93,1.6,1.87,2.39,2.8,.07,.09,.12,.2,.18,.3l-.05,.06c-.11-.04-.22-.06-.32-.11-.52-.25-.98-.59-1.39-1-.82-.83-1.64-1.67-2.44-2.52-1.15-1.21-1.88-2.67-2.51-4.2-.54-1.31-.75-2.7-.97-4.09-.18-1.12-.32-2.25-.26-3.38,.07-1.24,.16-2.48,.31-3.71,.09-.76,.21-1.54,.48-2.25,.58-1.54,1.28-3.04,2.29-4.36,.46-.6,1-1.13,1.51-1.69,1.45-1.61,3.09-3,4.93-4.15,1.08-.67,2.16-1.35,3.35-1.82,1.44-.57,2.89-1.09,4.44-1.27,.65-.08,1.3-.12,1.96-.13,.84-.02,1.68-.05,2.52,0,.85,.06,1.71,.2,2.55,.33,2.14,.33,4.16,1.04,6.08,2.03,1.77,.92,3.43,2.03,4.9,3.39,1.19,1.1,2.17,2.37,3.02,3.75,.61,.99,1.07,2.04,1.36,3.16,.12,.47,.21,.95,.11,1.44-.01,.06-.03,.11-.07,.22-.07-.11-.11-.17-.14-.23-.49-.96-.95-1.94-1.48-2.88-.55-.97-1.26-1.82-2.03-2.63-.43-.46-.88-.9-1.33-1.34-.07-.07-.17-.1-.26-.15l-.07,.07Zm-21.18,27.88c.74,.36,1.5,.56,2.32,.37-.75-.25-1.53-.4-2.32-.37Z"/><path d="M45.22,40.48c-.07,.17-.12,.36-.21,.52-.57,.91-1.13,1.82-1.75,2.71-.66,.95-1.55,1.67-2.58,2.2-.06,.03-.13,.04-.2,.06l-.03-.05c.08-.08,.15-.17,.23-.24,.64-.62,1.34-1.2,1.92-1.88,.53-.61,.95-1.33,1.43-1.99,.29-.4,.6-.78,.91-1.16,.06-.08,.14-.14,.21-.2l.06,.04Z"/><path d="M51.38,30.61c-.23-.81-.53-1.62-.28-2.51,.48,.51,.64,1.88,.28,2.51Z"/></g></g></svg>