<?xml version="1.0" encoding="utf-8"?>
<!-- Generator: Adobe Illustrator 26.3.1, SVG Export Plug-In . SVG Version: 6.00 Build 0)  -->
<svg version="1.1" id="Layer_1" xmlns="http://www.w3.org/2000/svg" xmlns:xlink="http://www.w3.org/1999/xlink" x="0px" y="0px"
	 viewBox="0 0 100 100" style="enable-background:new 0 0 100 100;" xml:space="preserve">
<g>
	<path d="M73.9,42.2c0.1,0.2,0.3,0.3,0.4,0.5c1.4,2.4,2.4,4.9,2.9,7.7c1.8,9.9-1,18.4-8.2,25.4c-4.2,4-9.3,6.4-15.1,7.1
		c-8.8,1.1-16.5-1.4-22.9-7.5c-2.1-2-3.8-4.3-5.2-6.9c-1.6-3.1-2.7-6.4-3-10c-0.6-5.9,0.7-11.5,3.8-16.6c0.3-0.4,0.6-0.9,0.9-1.3
		c-0.5,1.1-1.1,2.3-1.5,3.4c-1.1,2.8-1.7,5.7-1.8,8.8c-0.3,7,1.8,13.2,6.4,18.5c4,4.6,9,7.6,15,8.7c6.5,1.2,12.6,0.2,18.2-3.3
		c6.7-4.1,10.9-10.1,12.4-17.9c1-5.2,0.4-10.3-1.6-15.3c-0.2-0.4-0.3-0.8-0.5-1.2C73.8,42.3,73.9,42.3,73.9,42.2z"/>
	<path d="M75.4,18.3c-1.1,2.4-2.3,4.8-3.4,7.2c-1.4,2.9-2.1,6.1-3.1,9.1c-1,3.1-2.6,5.7-5.1,7.7c-1.1,0.9-2.4,1.4-3.8,1.8
		c-2.5,0.7-5.1,0.9-7.8,0.9c1.1-0.2,2.2-0.4,3.3-0.7c1.5-0.4,3-0.8,4.4-1.4c2.8-1.1,4.5-3.3,5.8-5.9c0.8-1.6,1.2-3.3,1.6-5
		c0.8-3.8,2.2-7.4,3.9-11c0.1-0.3,0.3-0.6,0.4-0.9c-0.7-0.1-1.4-0.2-2-0.2c-3.9-0.3-7.7-0.1-11.4,1.3c-2.8,1.1-5.3,2.6-7.1,5.2
		c-1.4,2-2.1,4.2-2.6,6.5c-0.2,0.7-0.3,1.5-0.4,2.3c0-0.8,0-1.6,0-2.4c0.1-2.4,0.6-4.7,1.7-6.8c1.3-2.7,3.5-4.5,6.1-6
		c2.7-1.5,5.5-2.2,8.5-2.6c3.2-0.3,6.4-0.1,9.6,0.6C74.6,18.1,75,18.2,75.4,18.3z"/>
	<path d="M47.4,45.3c-0.5,0.1-1.2,0.2-1.9,0.3c-1.8,0.2-3.6,0.2-5.3-0.2c-2.1-0.5-3.6-1.9-4.8-3.7c-0.7-1.2-1.3-2.5-1.8-3.9
		c-1.1-2.6-2.5-5-4-7.4c-0.2-0.3-0.4-0.7-0.7-1.1c0.7-0.3,1.4-0.5,2.1-0.7c3.3-0.9,6.6-1.2,9.9-0.2c2.7,0.8,4.9,2.3,6.3,4.8
		c0.8,1.5,1.2,3.1,1.4,4.8c0.2,1.7,0.1,3.5-0.1,5.2c0,0.1,0,0.2-0.1,0.4c-0.2-2.5-0.6-4.9-1.5-7.3c-1.3-3.3-3.8-5.1-7.2-5.8
		c-2.2-0.4-4.3-0.3-6.5,0.2c-0.1,0-0.1,0.1-0.2,0.1c0,0.1,0.1,0.2,0.1,0.3c1.5,2.5,2.5,5.1,3.4,7.8c0.3,1,0.9,2,1.5,2.9
		c1,1.5,2.5,2.4,4.3,2.7C44,44.8,45.8,45,47.4,45.3z"/>
	<path d="M48.9,44.8c2-5.5,5.3-10,10-13.5c-1.9,5.5-5.2,10.1-9.8,13.7C49,44.9,49,44.8,48.9,44.8z"/>
	<path d="M47.7,44.4c-2.8-0.4-6.8-4.5-7.1-7.2C42.7,37.3,46.9,40.7,47.7,44.4z"/>
</g>
</svg>
