<?xml version="1.0" encoding="UTF-8"?><svg id="Layer_1" xmlns="http://www.w3.org/2000/svg" viewBox="0 0 24 41.81"><g id="JLHJLa"><g><path d="M17.72,30.55c.34-.62,.66-1.19,.96-1.78,.44-.87,.17-1.74-.66-2.23-.59-.34-1.16-.27-1.71,.08-.47,.29-.79,.71-1.12,1.15-.55,.72-1.12,1.43-1.69,2.13-.14,.18-.34,.31-.57,.44l2.98-10.38c.21,.12,.4,.23,.59,.34,.46,.27,.91,.54,1.36,.81,.18,.11,.35,.18,.54,.04,.19-.14,.17-.33,.13-.53-.21-.94-.42-1.88-.65-2.82-.04-.19,0-.3,.14-.43,.73-.63,1.46-1.27,2.18-1.9,.15-.13,.29-.28,.22-.5-.07-.23-.27-.28-.49-.3-.96-.09-1.92-.18-2.88-.26-.21-.02-.3-.11-.37-.29-.37-.87-.75-1.74-1.12-2.61-.08-.2-.17-.38-.42-.38-.25,0-.34,.18-.43,.37-.38,.89-.77,1.77-1.15,2.66-.07,.16-.15,.22-.32,.24-.94,.08-1.89,.17-2.83,.26-.13,.01-.27,.02-.38,.07-.27,.13-.28,.46-.02,.69,.71,.63,1.42,1.26,2.14,1.87,.21,.18,.28,.33,.21,.61-.45,1.73-.87,3.47-1.35,5.21-.37-.51-.82-.83-1.43-.9-.61-.07-1.14,.11-1.62,.55-.01-.1-.02-.18-.02-.25,0-6.73,0-13.47,0-20.2,0-.53,.24-.76,.77-.76,.86,0,1.73,0,2.59,0,.22,0,.32,.07,.38,.27,.05,.17,.12,.33,.2,.49,.3,.56,.82,.75,1.4,.75,1.37,.02,2.73,.02,4.1,0,.77-.01,1.34-.35,1.56-1.13,.09-.3,.25-.39,.56-.38,.76,.03,1.52,0,2.28,0,.52,0,.76,.25,.76,.77,0,9.16,0,18.32,0,27.48,0,.52-.25,.77-.77,.77-1.26,0-2.53,0-3.79,0-.07,0-.15,0-.26-.01ZM11.69,8.27s.05-.04,.08-.05c.43-.27,.6-.64,.51-1.07-.08-.4-.38-.68-.87-.74-.36-.04-.74,0-1.11,0-.21,0-.26,.08-.26,.29,0,1.01,0,2.02,0,3.03v.27h.52v-1.52c.11,0,.2,0,.28,0,.51,0,.67,.13,.8,.62,.04,.17,.08,.34,.13,.51,.12,.45,.14,.46,.64,.36-.27-.55-.14-1.25-.73-1.69Zm.97,1.7q.5,.08,.63-.33c.04-.11,.07-.23,.11-.34,.18-.49,.04-.41,.57-.41,.27,0,.6-.08,.78,.05,.18,.13,.21,.47,.3,.73,.13,.38,.22,.42,.64,.28-.39-1.14-.78-2.28-1.18-3.41-.03-.08-.22-.12-.33-.14-.12-.01-.28-.07-.34,.13-.07,.24-.16,.47-.24,.71-.31,.9-.61,1.81-.93,2.73Zm6.29-2.07v-1.1h1.44v-.39h-1.95v3.57h2.02v-.41h-1.52v-1.24h1.36v-.43h-1.36Zm-1.97-1.08h1.09v-.41h-2.68v.43h1.08v3.15h.51v-3.17Z"/><path d="M8.69,41.81L.47,39.47c.14-.73,.3-1.42,.41-2.13,.1-.61,.1-1.23-.13-1.82-.95-2.52-.92-5.09-.36-7.68,.28-1.3,.65-2.57,.98-3.86,.03-.11,.06-.21,.11-.32,.42-.97,1.56-1.13,2.24-.32,.27,.33,.32,.7,.23,1.1-.03,.15-.06,.29,.12,.34,.19,.05,.24-.1,.28-.24,.08-.28,.16-.55,.24-.83,.18-.59,.58-.95,1.19-1.03,.64-.08,1.17,.15,1.55,.68,.18,.24,.16,.51,.09,.8-.05,.2-.29,.5,.04,.59,.33,.09,.24-.31,.34-.5,.06-.1,.07-.23,.1-.35,.24-.8,.91-1.21,1.69-1.04,.7,.15,1.16,.85,1.06,1.64-.01,.12-.07,.24-.06,.35,0,.08,.08,.19,.15,.22,.04,.02,.16-.05,.21-.12,.05-.06,.06-.15,.08-.23,.69-2.42,1.38-4.83,2.09-7.25,.1-.33,.24-.67,.43-.96,.35-.54,.89-.69,1.52-.49,.6,.19,.92,.59,.91,1.24,0,.34-.06,.69-.16,1.01-1.2,4.21-2.41,8.42-3.61,12.63-.04,.13,0,.27,0,.41,.14-.02,.31,0,.41-.06,.39-.27,.81-.52,1.12-.86,.64-.72,1.21-1.5,1.82-2.25,.28-.33,.56-.68,.89-.94,.49-.39,1.02-.34,1.47,.05,.41,.36,.51,.88,.22,1.42-.84,1.53-1.67,3.06-2.56,4.57-.89,1.51-2.16,2.68-3.49,3.79-.31,.26-.61,.52-.93,.75-1.03,.75-1.7,1.75-2.12,2.93-.12,.34-.24,.68-.37,1.04Z"/><path d="M16.78,32.22c.18-.32,.32-.62,.5-.9,.05-.08,.21-.14,.31-.14,1.36,0,2.71,0,4.07,0,.98,0,1.47-.49,1.47-1.47,0-9.12,0-18.24,0-27.36,0-.9-.51-1.41-1.42-1.41-.82,0-1.63,0-2.45,0-.48,0-.65,.11-.83,.55-.36,.89-.48,.97-1.45,.97-1.14,0-2.28,0-3.43,0-.2,0-.41-.02-.61-.05-.29-.05-.51-.22-.61-.51-.39-1.04-.45-.96-1.44-.96-.73,0-1.47,0-2.2,0-.89,0-1.4,.51-1.4,1.4,0,6.57,0,13.13,0,19.7v.37l-.87-.37v-.3c0-6.55,0-13.1,0-19.65C6.44,.82,7.26,0,8.52,0c4.49,0,8.97,0,13.46,0,1.19,0,2.02,.83,2.02,2.01,0,9.4,0,18.8,0,28.2,0,1.17-.79,2.02-1.94,2.03-1.72,.02-3.44,0-5.16,0-.03,0-.05,0-.12-.02Z"/><path d="M17.81,20.38l-1.74-1.03c.12-.45,.28-.87,.35-1.3,.07-.44,.12-.91,.05-1.35-.11-.73-.64-1.12-1.33-1.31-.71-.19-1.34-.04-1.82,.53-.26,.31-.43,.68-.65,1.04l-1.92-1.68c.06-.03,.1-.05,.14-.06,.85-.08,1.7-.17,2.55-.23,.28-.02,.46-.13,.57-.4,.35-.83,.71-1.65,1.09-2.53,.09,.2,.16,.36,.23,.52,.29,.67,.59,1.34,.87,2.02,.11,.26,.27,.36,.55,.39,.85,.06,1.7,.15,2.55,.23,.04,0,.08,.02,.17,.04-.38,.33-.72,.64-1.07,.94-.33,.29-.65,.58-.99,.86-.21,.18-.27,.37-.21,.64,.19,.8,.37,1.61,.55,2.42,.02,.07,.03,.14,.05,.26Z"/><path d="M10.57,6.8c.39-.06,.79-.11,1.09,.22,.18,.21,.18,.48,.04,.7-.27,.42-.7,.34-1.12,.34v-1.27Z"/><path d="M14.67,8.47h-1l.49-1.51,.5,1.51Z"/></g></g></svg>