<?xml version="1.0" encoding="utf-8"?>
<!-- Generator: Adobe Illustrator 26.0.3, SVG Export Plug-In . SVG Version: 6.00 Build 0)  -->
<svg version="1.1" xmlns="http://www.w3.org/2000/svg" xmlns:xlink="http://www.w3.org/1999/xlink" x="0px" y="0px"
	 viewBox="0 0 50 50" style="enable-background:new 0 0 50 50;" xml:space="preserve">
<style type="text/css">
	.st0{fill:#F9F9F9;}
	.st1{fill:#D6A573;}
	.st2{fill:#D4BCA0;}
	.st3{fill:#E4C8AF;}
	.st4{fill:#CC9D76;}
	.st5{fill:#E2D7C4;}
	.st6{fill:#EFE6DC;}
	.st7{fill:#D3A995;}
	.st8{fill:#DAB67D;}
	.st9{fill:#C2A14C;}
	.st10{fill:#C1A054;}
	.st11{fill:#BC9744;}
	.st12{fill:#A9A407;}
	.st13{fill:#F8F5EE;}
	.st14{fill:#D9AE7A;}
	.st15{fill:#989001;}
	.st16{fill:#A79810;}
</style>
<g id="Background">
	<path class="st0" d="M25,50L25,50C11.2,50,0,38.8,0,25v0C0,11.2,11.2,0,25,0h0c13.8,0,25,11.2,25,25v0C50,38.8,38.8,50,25,50z"/>
</g>
<g id="Layer_1">
	<path class="st1" d="M-201.6,26.4c-0.3-0.9,0-1.8,0.9-2.2v1.7c0,0.4,0,0.9,0,1.3c-0.1,0.2-0.2,0.5-0.2,0.7c-0.4,1.5-0.1,3-0.4,4.5
		c-0.6,4-0.9,7.9-1.1,11.9"/>
	<path class="st1" d="M-204,44.6c0.3-0.5,1.2-0.3,1.1-1c0.2-2.4-0.1-4.8,0.7-7.1"/>
	<path class="st2" d="M-203.6,46.5c0.1-4,0.5-8,1.1-11.9c0.2-1.5-0.1-3.1,0.4-4.5c0.1-0.2,0.2-0.5,0.2-0.7c0.2,1.9-0.4,3.8-0.2,5.8
		c-0.1,2.5-0.8,5-0.7,7.6c-0.1,0.2-0.2,0.4-0.2,0.6"/>
	<path class="st3" d="M-202.1,35.1c-0.2-1.9,0.3-3.9,0.2-5.8c0-0.4,0-0.9,0-1.3c0.5-1,0-2.2,0.7-3.1c0.1-1,1-1.7,1.3-2.6
		c0.4-0.1,0.8-0.3,1.2,0.2c0.2,0.4,0.2,0.8-0.1,1.1c-0.3-0.8-0.6-0.1-0.8,0.1c-1.1,1.4-1.7,3.2-1.8,5
		C-201.6,30.7-201.9,32.9-202.1,35.1z"/>
	<path class="st4" d="M-201.1,22.9c0.1-0.1,0,0.4-0.5,0.1c0.5,0,1-0.3,1.3-0.7c0.8-1.1,1.6-2.2,2.4-3.2c0.3-0.2,0.5-0.3,0.3-0.8
		l-1-0.6c-0.4-0.9,0.1-1.4,0.5-2c0.5,0.2,0.2,0.8,0.6,1.1l0.9-0.3c0.2,0.1,0.3,0.4,0.7,0.4l0.9-0.7c0.4,0.7,1.3,1,2.1,0.6
		c0,0,0,0,0.1,0l0.8,0.3c-0.3,0.4-1,0.6-0.6,1.4h0.6l-0.3,0.9c-1-0.6-1.4,0.4-2,0.7c-0.3-0.6,0.2-1.1,0.2-1.6
		c-0.1-0.5-0.5-0.8-1-0.9c-1.4,1.1-2.9,2.1-3.4,4.1c-0.3,0.3-0.9,0.4-1.1,0.9c-0.3,0.9-1.1,1.7-1.2,2.7
		C-202.1,24.9-201.1,23.5-201.1,22.9z"/>
	<path class="st5" d="M-203.1,43.3c0-0.2,0.1-0.4,0.2-0.6c0.1,1.3-0.2,2.7,0.6,3.8c0.6,0,1-0.4,1.1-1c0.1-0.5,0-1.1,0.7-1.3
		c-0.2,1.2-0.3,2.5-0.5,3.7"/>
	<path class="st6" d="M-200.5,44.2c-0.7,0.2-0.6,0.8-0.7,1.3c0,0.6-0.5,1-1.1,1c-0.8-1.2-0.6-2.5-0.6-3.8c0-2.5,0.6-5,0.7-7.6
		c0.2-2.2,0.5-4.4,0.7-6.5c0-1.8,0.6-3.6,1.8-5c0.2-0.2,0.5-0.9,0.8-0.1l0,0c-0.4,0.5-0.7,1.1-0.8,1.8c-0.4,4.4-0.5,8.7-0.4,13.1
		c0.1,0.5,0,1.1-0.2,1.6c-0.5-1-0.1-2.2-0.9-3.2c-1.4,2.2-1.6,6-0.4,7.5c1.1-0.6,0.6-1.9,1.2-2.7C-200.1,42.5-200.6,43.3-200.5,44.2
		z"/>
	<path class="st7" d="M-199.9,22.2c0.2-0.5,0.7-0.6,1.1-0.9c0.5-2,2-3,3.4-4.1c0.5,0.1,0.9,0.4,1,0.9c0,0.5-0.6,1-0.2,1.6l-0.8,0.5
		c-0.1,0-0.2,0-0.2,0c-1.2-0.4-1.5,0.9-2.2,1.2c-0.1,0.8-0.2,1.5-0.4,2.3l-0.5,0.8c0-0.4,0-0.7,0-1.1l0,0c0.3-0.3,0.4-0.7,0.1-1.1
		C-199.1,22-199.5,22.2-199.9,22.2z"/>
	<path class="st8" d="M-196.8,16.4c-0.5-2.3,0.5-4.4,0.2-6.6c0.3-0.4,0.5-0.2,0.8-0.2c0,0.6,0.2,1.2,0.5,1.7
		c0.9,1.5,0.9,3.3,0.1,4.8l-0.9,0.7C-196.5,16.9-196.6,16.5-196.8,16.4z"/>
	<path class="st9" d="M-195.3,16.1c0.8-1.5,0.8-3.3-0.1-4.8c-0.3-0.5-0.4-1.1-0.5-1.7l-1-1.8c0-0.3,0-0.6,0.2-0.8
		c1.5,2.7,2.3,5.7,2.4,8.8c0.8,0.2,0.8-0.3,0.9-0.6c0.7-0.1,1.1-0.8,1-1.4c0-0.6,0-1.2,0-1.8c0.5,0.8,0,1.6,0.4,2.3
		c-0.5,0.7-0.9,1.6-1.2,2.4C-193.8,17.1-194.8,16.9-195.3,16.1C-195.2,16.2-195.3,16.2-195.3,16.1z"/>
	<path class="st10" d="M-185,20.8c-0.3-0.1-0.6-0.2-0.8-0.5c-1-1.3-2.6-1.7-3.9-2.5c-0.5-0.4-1.2-0.5-1.7-0.2c0.1,1,1.4,1,1.5,1.9
		h-0.3h-0.3c-0.6-0.1-0.8-0.8-1.3-1l-0.5-0.2h-0.6c-0.4-0.8,0.3-1,0.6-1.4l1.2-0.4l2.2,0.9l0.3,0.5c0.5,0.5,1.1,0.7,1.7,0.7"/>
	<path class="st11" d="M-192.4,11.9c0,0.6,0,1.2,0,1.8c0.1,0.7-0.3,1.3-1,1.4c-0.1-0.2,0-0.4,0.2-0.6c0.4-0.4,0.2-0.9,0.3-1.4
		c0-1.6-0.1-3.1-0.3-4.7c0.6,0.9,0.3,2,0.8,2.9L-192.4,11.9z"/>
	<path class="st9" d="M-192.4,11.4c-0.5-0.9-0.2-2-0.8-2.9c0-0.1,0-0.2,0-0.2c0-0.3,0-0.6,0-0.8C-192.6,8.7-192.3,10-192.4,11.4z"/>
	<path class="st12" d="M-197.2,2.5c0-0.1,0-0.2,0-0.2c0.4-0.3,0.8-0.3,1.3-0.2c1.3,1,2.1,2.5,2.2,4.2c0,0.7,0.2,1.4,0.5,2
		c0,0.1,0,0.2,0,0.2c0.2,1.5,0.3,3.1,0.3,4.7c0,0.5,0.1,1-0.3,1.4C-193.5,10.2-194.2,6-197.2,2.5z"/>
	<path class="st13" d="M-200.2,41.1c0,0.2,0,0.3-0.1,0.5c-0.7,0.8-0.2,2.1-1.2,2.7c-1.2-1.5-1-5.3,0.4-7.5c0.8,1,0.4,2.2,0.9,3.2
		C-200.2,40.4-200.2,40.7-200.2,41.1z"/>
	<path class="st3" d="M-200.2,41.1c0-0.3,0-0.7,0-1.1c0.3-0.5,0.4-1.1,0.2-1.6c-0.1-4.4,0-8.8,0.4-13.1c0.1-0.7,0.3-1.3,0.8-1.8
		c0,0.4,0,0.7,0,1.1s-0.2,0.7-0.2,1c-0.4,0.4,0.1,0.9,0,1.3c-0.3,1.2-0.5,2.5-0.5,3.7c0,3.2,0.1,6.3-0.2,9.5
		C-199.7,40.5-199.7,41-200.2,41.1z"/>
	<path class="st14" d="M-191.8,18.5c0.6,0.2,0.7,0.9,1.3,1"/>
	<path class="st15" d="M-197.2,2.5c3,3.4,3.7,7.6,4,12c-0.2,0.1-0.2,0.4-0.2,0.6c-0.1,0.4-0.1,0.8-0.9,0.6c-0.1-3.1-0.9-6.1-2.4-8.7
		c0-0.3-0.1-0.6-0.3-0.8c0.3-1.2,0.1-2.4-0.6-3.4L-197.2,2.5z"/>
	<path class="st16" d="M-185,20.8c0.1,0.5,0.7,0.9,0.3,1.5c-2.3,0-3.9-1.2-5.3-2.9c-0.1-0.9-1.4-0.9-1.5-1.9
		c0.6-0.3,1.2-0.2,1.7,0.2c1.3,0.8,2.9,1.2,3.9,2.5C-185.6,20.6-185.3,20.6-185,20.8z"/>
	<text transform="matrix(1 0 0 1 -263.855 42.73)" style="fill:#699001; font-family:'GillSans'; font-size:36px;">LivL</text>
	
		<text transform="matrix(1 0 0 1 -204.895 42.73)" style="fill:#699001; font-family:'GillSans-Italic'; font-size:36px; letter-spacing:-2;">i</text>
	
		<text transform="matrix(1 0 0 1 -200.295 42.73)" style="fill:#699001; font-family:'GillSans'; font-size:36px; letter-spacing:-2;">or</text>
	<g>
		<path class="st1" d="M23.4,27.1c-0.4-0.9,0-1.9,0.9-2.3v1.8c0,0.5,0,0.9,0,1.4c-0.1,0.2-0.2,0.5-0.2,0.7c-0.4,1.5-0.1,3.1-0.4,4.7
			c-0.6,4.1-1,8.1-1.1,12.2"/>
		<path class="st1" d="M21.1,45.8c0.3-0.5,1.2-0.3,1.1-1c0.2-2.4-0.1-4.9,0.7-7.3"/>
		<path class="st2" d="M21.4,47.8c0.1-4.1,0.5-8.2,1.1-12.2c0.2-1.5-0.1-3.1,0.4-4.7c0.1-0.2,0.2-0.5,0.2-0.7c0.2,2-0.4,3.9-0.2,5.9
			c-0.1,2.6-0.8,5.1-0.8,7.8C22.1,44,22,44.3,22,44.5"/>
		<path class="st3" d="M22.9,36.1c-0.2-2,0.4-3.9,0.2-5.9c0-0.4,0-0.9,0-1.3c0.5-1,0-2.3,0.7-3.2c0.1-1,1-1.7,1.4-2.7
			c0.4-0.1,0.8-0.3,1.2,0.2c0.2,0.4,0.2,0.8-0.2,1.1c-0.3-0.9-0.6-0.1-0.8,0.1c-1.2,1.5-1.8,3.3-1.8,5.1
			C23.5,31.6,23.2,33.8,22.9,36.1z"/>
		<path class="st4" d="M24,23.6c0.1-0.1,0,0.4-0.6,0.1c0.5,0,1-0.3,1.3-0.7c0.8-1.1,1.6-2.2,2.4-3.3c0.3-0.2,0.5-0.3,0.3-0.8l-1-0.6
			c-0.4-0.9,0.1-1.5,0.5-2.1c0.5,0.2,0.2,0.9,0.6,1.1l0.9-0.3c0.2,0.1,0.3,0.4,0.7,0.4l0.9-0.7c0.4,0.7,1.4,1,2.1,0.6c0,0,0,0,0.1,0
			l0.8,0.3c-0.3,0.4-1,0.6-0.6,1.4H33l-0.3,0.9c-1-0.6-1.4,0.4-2.1,0.7c-0.3-0.6,0.2-1.1,0.2-1.6c-0.1-0.5-0.5-0.9-1-0.9
			c-1.4,1.1-3,2.2-3.5,4.2c-0.3,0.3-0.9,0.4-1.1,0.9c-0.3,0.9-1.2,1.7-1.3,2.8C22.9,25.6,24,24.2,24,23.6z"/>
		<path class="st6" d="M24.6,45.4c-0.7,0.2-0.6,0.9-0.7,1.3c0,0.6-0.5,1-1.1,1c-0.8-1.2-0.6-2.6-0.7-3.9c0-2.6,0.7-5.1,0.8-7.8
			c0.2-2.2,0.5-4.5,0.7-6.7c0-1.9,0.7-3.7,1.8-5.1c0.2-0.2,0.5-0.9,0.8-0.1l0,0c-0.5,0.5-0.7,1.1-0.8,1.8c-0.4,4.5-0.5,9-0.4,13.5
			c0.1,0.6,0.1,1.1-0.2,1.6c-0.5-1-0.1-2.3-0.9-3.3c-1.4,2.3-1.7,6.2-0.4,7.7c1.1-0.6,0.6-2,1.3-2.8C25,43.7,24.5,44.5,24.6,45.4z"
			/>
		<path class="st7" d="M25.2,22.9c0.2-0.5,0.8-0.6,1.1-0.9c0.5-2,2.1-3.1,3.5-4.2c0.5,0.1,0.9,0.4,1,0.9c0,0.5-0.6,1-0.2,1.6
			L29.8,21c-0.1,0-0.2,0-0.3,0c-1.2-0.4-1.5,0.9-2.3,1.2c-0.1,0.8-0.2,1.6-0.4,2.3l-0.5,0.8c0-0.4,0-0.7,0-1.1l0,0
			c0.3-0.3,0.4-0.8,0.2-1.1C26.1,22.7,25.6,22.8,25.2,22.9z"/>
		<path class="st8" d="M28.4,16.9c-0.5-2.3,0.5-4.6,0.2-6.8c0.3-0.4,0.6-0.2,0.8-0.2c0,0.6,0.2,1.2,0.5,1.7c0.9,1.5,0.9,3.4,0.1,4.9
			l-0.9,0.7C28.7,17.4,28.6,17.1,28.4,16.9z"/>
		<path class="st9" d="M30,16.6c0.8-1.6,0.8-3.4-0.1-4.9c-0.3-0.5-0.5-1.1-0.5-1.7l-1-1.9c0-0.3,0-0.6,0.2-0.8
			c1.5,2.7,2.4,5.8,2.5,9c0.8,0.2,0.8-0.3,0.9-0.6c0.7-0.1,1.1-0.8,1-1.5c0-0.6,0-1.2,0-1.8c0.5,0.8,0,1.7,0.4,2.3
			c-0.5,0.8-0.9,1.6-1.2,2.5C31.4,17.6,30.5,17.4,30,16.6C30,16.7,30,16.7,30,16.6z"/>
		<path class="st10" d="M40.5,21.4c-0.3-0.2-0.6-0.2-0.8-0.5c-1-1.3-2.7-1.8-4-2.6c-0.5-0.4-1.2-0.5-1.8-0.2c0.1,1,1.4,1,1.5,1.9
			h-0.3h-0.3c-0.6-0.1-0.8-0.9-1.4-1L33,18.8h-0.7c-0.4-0.8,0.3-1,0.6-1.4l1.2-0.4l2.3,0.9l0.3,0.5c0.5,0.5,1.1,0.7,1.8,0.7"/>
		<path class="st11" d="M32.9,12.3c0,0.6,0,1.2,0,1.8c0.1,0.7-0.3,1.3-1,1.5c-0.1-0.2,0-0.4,0.2-0.6c0.4-0.4,0.3-0.9,0.3-1.4
			c0-1.6-0.1-3.2-0.3-4.8c0.6,0.9,0.3,2.1,0.8,2.9L32.9,12.3z"/>
		<path class="st9" d="M32.9,11.8c-0.5-0.9-0.2-2.1-0.8-2.9c0-0.1,0-0.2,0-0.3c0-0.3,0-0.6,0-0.8C32.7,9,33,10.4,32.9,11.8z"/>
		<path class="st12" d="M28,2.7c0-0.1,0-0.2,0-0.2c0.4-0.3,0.9-0.3,1.3-0.2c1.3,1.1,2.1,2.6,2.2,4.3c0,0.7,0.2,1.4,0.5,2.1
			c0,0.1,0,0.2,0,0.3c0.2,1.6,0.3,3.2,0.3,4.8c0,0.5,0.1,1-0.3,1.4C31.8,10.5,31.1,6.3,28,2.7z"/>
		<path class="st13" d="M24.9,42.2c0,0.2-0.1,0.4-0.1,0.5c-0.7,0.8-0.2,2.2-1.3,2.8c-1.3-1.5-1-5.4,0.4-7.7c0.8,1,0.4,2.3,0.9,3.3
			C24.9,41.5,24.9,41.9,24.9,42.2z"/>
		<path class="st3" d="M24.9,42.2c0-0.4,0-0.7,0-1.1c0.3-0.5,0.4-1.1,0.2-1.7c-0.1-4.5,0-9,0.4-13.5c0.1-0.7,0.3-1.3,0.8-1.8
			c0,0.4,0,0.7,0,1.1c0,0.4-0.2,0.7-0.3,1.1c-0.4,0.5,0.1,0.9,0,1.3c-0.3,1.2-0.5,2.5-0.5,3.8c0,3.2,0.1,6.5-0.2,9.7
			C25.4,41.7,25.4,42.1,24.9,42.2z"/>
		<path class="st14" d="M33.5,19c0.6,0.2,0.7,0.9,1.4,1"/>
		<path class="st15" d="M28,2.7c3.1,3.5,3.8,7.8,4.1,12.3c-0.2,0.1-0.2,0.4-0.2,0.6c-0.1,0.4-0.1,0.9-0.9,0.6
			c-0.1-3.1-0.9-6.2-2.5-9c0-0.3-0.1-0.6-0.3-0.8C28.6,5.3,28.3,4,27.7,3L28,2.7z"/>
		<path class="st16" d="M40.5,21.4c0.1,0.5,0.7,1,0.3,1.6c-2.3,0-4-1.2-5.4-2.9c-0.1-0.9-1.5-0.9-1.5-1.9c0.6-0.3,1.3-0.2,1.8,0.2
			c1.4,0.8,3,1.2,4,2.6C39.9,21.2,40.2,21.3,40.5,21.4z"/>
	</g>
</g>
</svg>
